<?xml version="1.0" encoding="UTF-8"?>
<svg xmlns="http://www.w3.org/2000/svg"
     viewBox="0 0 135.46667 135.46667"
     width="512" height="512">
  <path fill="#0093dd" d="M 59.823116,0.6505142 C 33.424751,3.3209141 9.6008502,23.020126 2.6727271,48.739529 -5.0920409,74.955285 4.1821124,105.71285 26.476279,121.99397 50.510296,140.57285 87.131257,140.29225 110.57095,120.8201 130.39179,105.35661 139.47113,78.166884 133.89692,53.782548 129.04711,29.671972 110.1959,8.7825409 86.201889,2.665949 77.637514,0.34886499 68.639437,-0.28140778 59.823116,0.6505142 Z M 19.387529,102.91095 C 18.123916,93.886617 16.860304,84.862285 15.596691,75.837952 18.334517,75.628087 21.072344,75.418221 23.81017,75.208356 22.948201,60.379658 18.535893,44.20332 26.679545,30.523169 40.509034,5.4042563 78.02201,-3.9695957 100.81121,14.479783 c 12.68511,9.636418 16.33212,27.139862 12.64981,42.048487 -0.75113,6.055367 -2.39888,13.026997 -8.65507,15.655865 C 86.421565,81.109288 65.608234,81.975391 46.165542,87.330688 35.897701,90.057496 27.65418,96.608106 19.387529,102.91095 Z M 30.76004,46.876129 C 34.232961,41.700172 37.40321,34.49382 42.755298,30.026479 56.149842,17.013637 76.79832,12.241874 94.572436,17.914305 79.174613,6.3777104 56.69968,11.007477 43.436591,23.661005 36.84759,29.73856 31.985893,37.918207 30.76004,46.876129 Z M 47.186997,73.319541 C 62.701102,72.908845 78.145215,71.150681 93.631546,70.199584 94.456878,59.869371 99.030816,48.449719 92.985802,38.890097 86.300254,27.875439 70.703139,26.34686 60.18498,32.44983 51.381662,36.844762 46.02764,46.487378 46.456214,56.250707 c -0.09795,5.701396 0.696628,11.371045 0.730783,17.068834 z m 68.235033,1.259194 c -2.81354,12.784604 -5.60854,25.573985 -8.66049,38.304445 -22.670902,3.3379 -45.297033,7.03929 -67.788023,11.43435 10.546197,-7.1233 24.04929,-5.4569 35.64442,-9.75717 8.907683,-2.73318 17.438715,-6.9731 24.554199,-13.04093 -13.833165,4.1626 -27.974702,7.99067 -42.508048,8.31718 4.281175,-2.15319 11.32367,-2.0521 16.554765,-3.80334 14.650452,-3.40432 29.165607,-10.178193 38.682487,-22.202021 -10.15936,5.195687 -20.627431,10.22973 -32.107244,11.564185 -2.721155,0.696051 -13.397047,2.063515 -5.776411,-0.187622 14.891042,-4.380705 28.762985,-11.683876 41.404345,-20.629077 z"/>
</svg>
